<svg xmlns="http://www.w3.org/2000/svg" viewBox="0 0 620 480" role="img" aria-label="Pool water placeholder">
  <!-- TODO: replace with a real photo of a KSJ lesson (drop e.g. hero.jpg in
       public/ and update src/components/hero.astro). This is a placeholder. -->
  <defs>
    <linearGradient id="water" x1="0" y1="0" x2="0" y2="1">
      <stop offset="0" stop-color="#7dd3fc"/>
      <stop offset="0.55" stop-color="#0ea5e9"/>
      <stop offset="1" stop-color="#0369a1"/>
    </linearGradient>
    <linearGradient id="shine" x1="0" y1="0" x2="1" y2="0">
      <stop offset="0" stop-color="#ffffff" stop-opacity="0"/>
      <stop offset="0.5" stop-color="#ffffff" stop-opacity="0.35"/>
      <stop offset="1" stop-color="#ffffff" stop-opacity="0"/>
    </linearGradient>
  </defs>
  <rect width="620" height="480" rx="24" fill="url(#water)"/>
  <g fill="none" stroke="#e0f2fe" stroke-width="5" stroke-linecap="round" opacity="0.75">
    <path d="M40 150 q40 -22 80 0 t80 0 t80 0 t80 0 t80 0 t80 0"/>
    <path d="M40 235 q40 -22 80 0 t80 0 t80 0 t80 0 t80 0 t80 0" opacity="0.6"/>
    <path d="M40 320 q40 -22 80 0 t80 0 t80 0 t80 0 t80 0 t80 0" opacity="0.45"/>
    <path d="M40 400 q40 -22 80 0 t80 0 t80 0 t80 0 t80 0 t80 0" opacity="0.3"/>
  </g>
  <rect width="620" height="120" fill="url(#shine)" opacity="0.6"/>
  <text x="310" y="262" text-anchor="middle" font-size="96">🏊</text>
</svg>
